<svg width="43" height="44" viewBox="0 0 43 44" fill="none" xmlns="http://www.w3.org/2000/svg">
<path d="M43 18.0716V19.643C43 20.9448 42.1979 22.0001 41.2083 22.0001H40.6111L38.6617 39.9524C38.4095 42.2749 36.8977 44 35.1144 44H7.88557C6.10234 44 4.59047 42.2749 4.33822 39.9524L2.38889 22.0001H1.79167C0.802144 22.0001 0 20.9448 0 19.643V18.0716C0 16.7698 0.802144 15.7145 1.79167 15.7145H6.81886L14.7903 1.29464C15.5663 -0.109033 17.0602 -0.419487 18.1273 0.601444C19.1943 1.62238 19.4303 3.58793 18.6542 4.99169L12.7266 15.7145H30.2734L24.3458 4.99159C23.5697 3.58793 23.8057 1.62228 24.8727 0.601346C25.9396 -0.419585 27.4338 -0.10923 28.2098 1.29454L36.1811 15.7145H41.2083C42.1979 15.7145 43 16.7698 43 18.0716ZM23.2917 35.3572V24.3573C23.2917 23.0554 22.4895 22.0001 21.5 22.0001C20.5105 22.0001 19.7083 23.0554 19.7083 24.3573V35.3572C19.7083 36.659 20.5105 37.7143 21.5 37.7143C22.4895 37.7143 23.2917 36.659 23.2917 35.3572ZM31.6528 35.3572V24.3573C31.6528 23.0554 30.8506 22.0001 29.8611 22.0001C28.8716 22.0001 28.0694 23.0554 28.0694 24.3573V35.3572C28.0694 36.659 28.8716 37.7143 29.8611 37.7143C30.8506 37.7143 31.6528 36.659 31.6528 35.3572ZM14.9306 35.3572V24.3573C14.9306 23.0554 14.1284 22.0001 13.1389 22.0001C12.1494 22.0001 11.3472 23.0554 11.3472 24.3573V35.3572C11.3472 36.659 12.1494 37.7143 13.1389 37.7143C14.1284 37.7143 14.9306 36.659 14.9306 35.3572Z" fill="#F8F8F8"/>
</svg>
