<svg width="39" height="39" viewBox="0 0 39 39" fill="none" xmlns="http://www.w3.org/2000/svg">
<path d="M19.5 21.9375C25.5557 21.9375 30.4688 17.0244 30.4688 10.9688C30.4688 4.91309 25.5557 0 19.5 0C13.4443 0 8.53125 4.91309 8.53125 10.9688C8.53125 17.0244 13.4443 21.9375 19.5 21.9375ZM29.25 24.375H25.0529C23.3619 25.152 21.4805 25.5938 19.5 25.5938C17.5195 25.5938 15.6457 25.152 13.9471 24.375H9.75C4.36465 24.375 0 28.7396 0 34.125V35.3438C0 37.3623 1.6377 39 3.65625 39H35.3438C37.3623 39 39 37.3623 39 35.3438V34.125C39 28.7396 34.6354 24.375 29.25 24.375Z" fill="#F8F8F8"/>
</svg>
